<?xml version="1.0" encoding="UTF-8" standalone="no"?>
<!DOCTYPE svg PUBLIC "-//W3C//DTD SVG 1.1//EN" "http://www.w3.org/Graphics/SVG/1.1/DTD/svg11.dtd">
<svg width="100%" height="100%" viewBox="0 0 32 32" version="1.1" xmlns="http://www.w3.org/2000/svg" xmlns:xlink="http://www.w3.org/1999/xlink" xml:space="preserve" xmlns:serif="http://www.serif.com/" style="fill-rule:evenodd;clip-rule:evenodd;stroke-linejoin:round;stroke-miterlimit:2;">
    <g id="Artboard1" transform="matrix(1.6,0,0,1.6,-1200,-144)">
        <rect x="750" y="90" width="20" height="20" style="fill:none;"/>
        <clipPath id="_clip1">
            <rect x="750" y="90" width="20" height="20"/>
        </clipPath>
        <g clip-path="url(#_clip1)">
            <g id="outline" transform="matrix(0.625,0,0,0.625,748.75,89.375)">
                <path d="M19,1L20,1L20,2L21,2L21,4L22,4L22,2L23,2L23,1L24,1L24,2L25,2L25,4L24,4L24,5L25,5L25,6L26,6L26,13L25,13L25,15L26,15L26,16L27,16L27,17L28,17L28,18L29,18L29,22L28,22L28,27L27,27L27,30L28,30L28,33L10,33L10,31L11,31L11,30L15,30L15,28L14,28L14,26L13,26L13,24L12,24L12,22L11,22L11,18L12,18L12,17L13,17L13,16L14,16L14,15L13,15L13,14L10,14L10,13L7,13L7,12L6,12L6,6L9,6L9,5L13,5L13,4L18,4L18,2L19,2L19,1Z" style="fill:rgb(65,42,57);"/>
            </g>
            <g id="face">
                <g>
                    <g transform="matrix(0.625,0,0,0.625,750,90)">
                        <path d="M21,3L21,1L22,1L22,3L21,3ZM17,3L17,1L18,1L18,3L17,3ZM21,3L21,4L22,4L22,5L23,5L23,12L22,12L22,13L21,13L21,14L19,14L19,15L14,15L14,14L13,14L13,13L11,13L11,12L8,12L8,11L9,11L9,10L10,10L10,5L11,5L11,4L16,4L16,3L17,3L17,4L20,4L20,3L21,3ZM18,12L15,12L15,13L18,13L18,12ZM18,12L19,12L19,11L18,11L18,12Z" style="fill:rgb(173,119,88);"/>
                    </g>
                    <g id="face-shadow" serif:id="face shadow">
                        <g transform="matrix(0.625,0,0,0.625,750,90)">
                            <rect x="8" y="11" width="2" height="1" style="fill:rgb(155,93,78);"/>
                        </g>
                        <g transform="matrix(0.625,0,0,0.625,750,90)">
                            <rect x="11" y="12" width="1" height="1" style="fill:rgb(155,93,78);"/>
                        </g>
                        <g transform="matrix(0.625,0,0,0.625,750,90)">
                            <rect x="13" y="13" width="1" height="1" style="fill:rgb(155,93,78);"/>
                        </g>
                        <g transform="matrix(0.625,0,0,0.625,750,90)">
                            <rect x="14" y="14" width="5" height="1" style="fill:rgb(155,93,78);"/>
                        </g>
                        <g transform="matrix(0.625,0,0,0.625,750,90)">
                            <rect x="20" y="13" width="1" height="1" style="fill:rgb(155,93,78);"/>
                        </g>
                        <g transform="matrix(0.625,0,0,0.625,750,90)">
                            <rect x="21" y="12" width="1" height="1" style="fill:rgb(155,93,78);"/>
                        </g>
                        <g transform="matrix(0.625,0,0,0.625,750,90)">
                            <rect x="22" y="11" width="1" height="1" style="fill:rgb(155,93,78);"/>
                        </g>
                        <g transform="matrix(0.625,0,0,0.625,750,90)">
                            <rect x="18" y="10" width="1" height="1" style="fill:rgb(155,93,78);"/>
                        </g>
                        <g transform="matrix(0.625,0,0,0.625,750,90)">
                            <rect x="19" y="11" width="1" height="1" style="fill:rgb(155,93,78);"/>
                        </g>
                        <g transform="matrix(0.625,0,0,0.625,750,90)">
                            <rect x="11" y="4" width="1" height="1" style="fill:rgb(155,93,78);"/>
                        </g>
                        <g transform="matrix(0.625,0,0,0.625,750,90)">
                            <rect x="16" y="3" width="1" height="1" style="fill:rgb(155,93,78);"/>
                        </g>
                        <g transform="matrix(0.625,0,0,0.625,750,90)">
                            <rect x="20" y="3" width="1" height="1" style="fill:rgb(155,93,78);"/>
                        </g>
                        <g transform="matrix(0.625,0,0,0.625,750,90)">
                            <rect x="17" y="2" width="1" height="1" style="fill:rgb(155,93,78);"/>
                        </g>
                        <g transform="matrix(0.625,0,0,0.625,750,90)">
                            <rect x="21" y="2" width="1" height="1" style="fill:rgb(155,93,78);"/>
                        </g>
                    </g>
                </g>
                <g>
                    <g transform="matrix(0.625,0,0,0.625,750,90)">
                        <path d="M17,5L17,6L16,6L16,7L14,7L14,6L13,6L13,5L17,5Z" style="fill:rgb(98,58,48);"/>
                    </g>
                    <g transform="matrix(0.625,0,0,0.625,750,90)">
                        <path d="M18,5L22,5L22,6L21,6L21,7L19,7L19,6L18,6L18,5Z" style="fill:rgb(98,58,48);"/>
                    </g>
                    <g transform="matrix(0.625,0,0,0.625,750,90)">
                        <rect x="13" y="6" width="1" height="1" style="fill:rgb(254,251,239);"/>
                    </g>
                    <g transform="matrix(0.625,0,0,0.625,750,90)">
                        <rect x="16" y="6" width="1" height="1" style="fill:rgb(254,251,239);"/>
                    </g>
                    <g transform="matrix(0.625,0,0,0.625,750,90)">
                        <rect x="18" y="6" width="1" height="1" style="fill:rgb(254,251,239);"/>
                    </g>
                    <g transform="matrix(0.625,0,0,0.625,750,90)">
                        <rect x="21" y="6" width="1" height="1" style="fill:rgb(254,251,239);"/>
                    </g>
                </g>
            </g>
            <g id="shirt">
                <g transform="matrix(0.625,0,0,0.625,750,90)">
                    <path d="M13,16L19,16L19,15L21,15L21,14L23,14L23,15L24,15L24,16L25,16L25,17L26,17L26,21L25,21L25,23L23,23L23,20L24,20L24,19L23,19L23,17L22,17L22,21L20,21L20,22L14,22L14,21L13,21L13,16Z" style="fill:rgb(141,147,148);"/>
                </g>
                <g>
                    <g transform="matrix(0.625,0,0,0.625,750,90)">
                        <rect x="11" y="21" width="1" height="2" style="fill:rgb(111,105,123);"/>
                    </g>
                    <g transform="matrix(0.625,0,0,0.625,750,90)">
                        <path d="M10,21L10,17L11,17L11,16L12,16L12,15L14,15L14,16L13,16L13,17L12,17L12,20L11,20L11,21L10,21Z" style="fill:rgb(111,105,123);"/>
                    </g>
                    <g transform="matrix(0.625,0,0,0.625,750,90)">
                        <rect x="12" y="20" width="1" height="1" style="fill:rgb(111,105,123);"/>
                    </g>
                    <g transform="matrix(0.625,0,0,0.625,750,90)">
                        <path d="M13,17L14,17L14,18L16,18L16,19L13,19L13,17Z" style="fill:rgb(111,105,123);"/>
                    </g>
                    <g transform="matrix(0.625,0,0,0.625,750,90)">
                        <rect x="14" y="16" width="5" height="1" style="fill:rgb(111,105,123);"/>
                    </g>
                    <g transform="matrix(0.625,0,0,0.625,750,90)">
                        <rect x="19" y="15" width="2" height="1" style="fill:rgb(111,105,123);"/>
                    </g>
                    <g transform="matrix(0.625,0,0,0.625,750,90)">
                        <rect x="21" y="14" width="2" height="1" style="fill:rgb(111,105,123);"/>
                    </g>
                    <g transform="matrix(0.625,0,0,0.625,750,90)">
                        <rect x="23" y="18" width="1" height="1" style="fill:rgb(111,105,123);"/>
                    </g>
                    <g transform="matrix(0.625,0,0,0.625,750,90)">
                        <rect x="24" y="19" width="1" height="1" style="fill:rgb(111,105,123);"/>
                    </g>
                    <g transform="matrix(0.625,0,0,0.625,750,90)">
                        <rect x="23" y="20" width="1" height="1" style="fill:rgb(111,105,123);"/>
                    </g>
                    <g transform="matrix(0.625,0,0,0.625,750,90)">
                        <rect x="22" y="19" width="1" height="1" style="fill:rgb(111,105,123);"/>
                    </g>
                    <g transform="matrix(0.625,0,0,0.625,750,90)">
                        <rect x="20" y="20" width="2" height="1" style="fill:rgb(111,105,123);"/>
                    </g>
                    <g transform="matrix(0.625,0,0,0.625,750,90)">
                        <rect x="17" y="21" width="3" height="1" style="fill:rgb(111,105,123);"/>
                    </g>
                </g>
            </g>
            <g>
                <g>
                    <g>
                        <g transform="matrix(0.625,0,0,0.625,750,90)">
                            <path d="M14,26L16,26L16,24L15,24L15,23L13,23L13,25L14,25L14,26Z" style="fill:rgb(132,151,166);"/>
                        </g>
                        <g transform="matrix(0.625,0,0,0.625,750,90)">
                            <path d="M18,24L19,24L19,23L22,23L22,24L24,24L24,26L18,26L18,24Z" style="fill:rgb(132,151,166);"/>
                        </g>
                    </g>
                    <g>
                        <g transform="matrix(0.625,0,0,0.625,750,90)">
                            <rect x="13" y="22" width="1" height="1" style="fill:rgb(114,109,145);"/>
                        </g>
                        <g transform="matrix(0.625,0,0,0.625,750,90)">
                            <rect x="12" y="23" width="1" height="2" style="fill:rgb(114,109,145);"/>
                        </g>
                        <g transform="matrix(0.625,0,0,0.625,750,90)">
                            <path d="M13,27L17,27L17,26L14,26L14,25L13,25L13,27Z" style="fill:rgb(114,109,145);"/>
                        </g>
                        <g transform="matrix(0.625,0,0,0.625,750,90)">
                            <path d="M15,23L19,23L19,24L18,24L18,26L17,26L17,24L15,24L15,23Z" style="fill:rgb(114,109,145);"/>
                        </g>
                        <g transform="matrix(0.625,0,0,0.625,750,90)">
                            <rect x="20" y="22" width="2" height="1" style="fill:rgb(114,109,145);"/>
                        </g>
                        <g transform="matrix(0.625,0,0,0.625,750,90)">
                            <rect x="22" y="23" width="1" height="1" style="fill:rgb(114,109,145);"/>
                        </g>
                        <g transform="matrix(0.625,0,0,0.625,750,90)">
                            <rect x="24" y="24" width="1" height="2" style="fill:rgb(114,109,145);"/>
                        </g>
                        <g transform="matrix(0.625,0,0,0.625,750,90)">
                            <rect x="18" y="26" width="6" height="1" style="fill:rgb(114,109,145);"/>
                        </g>
                    </g>
                </g>
                <g>
                    <g transform="matrix(0.625,0,0,0.625,750,90)">
                        <rect x="14" y="28" width="2" height="1" style="fill:rgb(156,170,191);"/>
                    </g>
                    <g transform="matrix(0.625,0,0,0.625,750,90)">
                        <rect x="18" y="28" width="4" height="1" style="fill:rgb(156,170,191);"/>
                    </g>
                </g>
                <g>
                    <g transform="matrix(0.625,0,0,0.625,750,90)">
                        <rect x="16" y="28" width="1" height="1" style="fill:rgb(126,123,167);"/>
                    </g>
                    <g transform="matrix(0.625,0,0,0.625,750,90)">
                        <rect x="22" y="28" width="2" height="1" style="fill:rgb(126,123,167);"/>
                    </g>
                </g>
            </g>
            <g>
                <g>
                    <g transform="matrix(0.625,0,0,0.625,750,90)">
                        <path d="M9,30L13,30L13,31L12,31L12,32L9,32L9,30Z" style="fill:rgb(254,251,239);"/>
                    </g>
                    <g transform="matrix(0.625,0,0,0.625,750,90)">
                        <rect x="13" y="29" width="1" height="1" style="fill:rgb(254,251,239);"/>
                    </g>
                    <g transform="matrix(0.625,0,0,0.625,750,90)">
                        <rect x="15" y="30" width="1" height="1" style="fill:rgb(254,251,239);"/>
                    </g>
                    <g transform="matrix(0.625,0,0,0.625,750,90)">
                        <rect x="21" y="30" width="1" height="1" style="fill:rgb(254,251,239);"/>
                    </g>
                    <g transform="matrix(0.625,0,0,0.625,750,90)">
                        <rect x="23" y="30" width="1" height="1" style="fill:rgb(254,251,239);"/>
                    </g>
                    <g transform="matrix(0.625,0,0,0.625,750,90)">
                        <path d="M18,30L20,30L20,31L21,31L21,32L17,32L17,31L18,31L18,30Z" style="fill:rgb(254,251,239);"/>
                    </g>
                </g>
                <g>
                    <g transform="matrix(0.625,0,0,0.625,750,90)">
                        <path d="M13,31L14,31L14,30L15,30L15,31L16,31L16,32L13,32L13,31Z" style="fill:rgb(151,61,59);"/>
                    </g>
                    <g transform="matrix(0.625,0,0,0.625,750,90)">
                        <rect x="16" y="30" width="1" height="1" style="fill:rgb(151,61,59);"/>
                    </g>
                    <g transform="matrix(0.625,0,0,0.625,750,90)">
                        <rect x="17" y="29" width="1" height="1" style="fill:rgb(151,61,59);"/>
                    </g>
                    <g transform="matrix(0.625,0,0,0.625,750,90)">
                        <rect x="22" y="30" width="1" height="1" style="fill:rgb(151,61,59);"/>
                    </g>
                    <g transform="matrix(0.625,0,0,0.625,750,90)">
                        <path d="M24,31L24,29L25,29L25,32L22,32L22,31L24,31Z" style="fill:rgb(151,61,59);"/>
                    </g>
                </g>
            </g>
        </g>
    </g>
</svg>
