<?xml version="1.0" encoding="UTF-8" standalone="no"?>
<!DOCTYPE svg PUBLIC "-//W3C//DTD SVG 1.1//EN" "http://www.w3.org/Graphics/SVG/1.1/DTD/svg11.dtd">
<svg width="100%" height="100%" viewBox="0 0 32 32" version="1.1" xmlns="http://www.w3.org/2000/svg" xmlns:xlink="http://www.w3.org/1999/xlink" xml:space="preserve" xmlns:serif="http://www.serif.com/" style="fill-rule:evenodd;clip-rule:evenodd;stroke-linejoin:round;stroke-miterlimit:2;">
    <g transform="matrix(1,0,0,1,-70,-3.55271e-15)">
        <g id="Discord" transform="matrix(1,0,0,1,70,3.55271e-15)">
            <rect x="0" y="0" width="32" height="32" style="fill:none;"/>
            <g transform="matrix(1.28,0,0,1.28,-52.48,-4.76)">
                <path d="M48,23L48,24L49,24L49,26L46,26L46,25L44,25L44,24L42,24L42,23L41,23L41,19L42,19L42,15L43,15L43,13L44,13L44,11L45,11L45,10L46,10L46,9L47,9L47,8L50,8L50,9L51,9L51,10L56,10L56,9L57,9L57,8L60,8L60,9L61,9L61,10L62,10L62,11L63,11L63,13L64,13L64,15L65,15L65,19L66,19L66,23L65,23L65,24L63,24L63,25L61,25L61,26L58,26L58,24L59,24L59,23L61,23L61,22L59,22L59,23L57,23L57,24L50,24L50,23L48,23L48,22L46,22L46,23L48,23ZM47,19L48,19L48,20L51,20L51,19L52,19L52,16L51,16L51,15L48,15L48,16L47,16L47,19ZM55,16L55,19L56,19L56,20L59,20L59,19L60,19L60,16L59,16L59,15L56,15L56,16L55,16Z"/>
            </g>
        </g>
    </g>
</svg>
