<?xml version="1.0" encoding="UTF-8" standalone="no"?>
<!DOCTYPE svg PUBLIC "-//W3C//DTD SVG 1.1//EN" "http://www.w3.org/Graphics/SVG/1.1/DTD/svg11.dtd">
<svg width="100%" height="100%" viewBox="0 0 48 48" version="1.1" xmlns="http://www.w3.org/2000/svg" xmlns:xlink="http://www.w3.org/1999/xlink" xml:space="preserve" xmlns:serif="http://www.serif.com/" style="fill-rule:evenodd;clip-rule:evenodd;stroke-linejoin:round;stroke-miterlimit:2;">
    <g transform="matrix(0.75,0,0,0.75,6,6)">
        <g transform="matrix(1.33333,0,0,1.33333,-8,-8)">
            <path d="M48,14.46L48,33.54C48,41.521 41.521,48 33.54,48L14.46,48C6.479,48 0,41.521 0,33.54L0,14.46C0,6.479 6.479,0 14.46,0L33.54,0C41.521,0 48,6.479 48,14.46Z" style="fill:rgb(29,41,61);"/>
        </g>
        <g transform="matrix(4,0,0,5.76,-54.8902,23.8964)">
            <path d="M14.723,3.49L14.723,-2.76L17.223,-2.76L17.223,2.24L19.723,2.24L19.723,3.49L14.723,3.49Z" style="fill:white;fill-rule:nonzero;"/>
        </g>
        <g transform="matrix(4,0,0,5.76,-152.462,22.1049)">
            <path d="M44.115,3.107L44.115,1.857L42.865,1.857L42.865,-1.893L44.115,-1.893L44.115,-3.143L47.865,-3.143L47.865,-1.893L49.115,-1.893L49.115,-0.643L46.615,-0.643L46.615,-1.893L45.365,-1.893L45.365,1.857L46.615,1.857L46.615,0.607L49.115,0.607L49.115,1.857L47.865,1.857L47.865,3.107L44.115,3.107Z" style="fill:white;fill-rule:nonzero;"/>
        </g>
    </g>
</svg>
