<svg viewBox="0 0 48 48" version="1.1" xmlns="http://www.w3.org/2000/svg">
    <g transform="matrix(4,0,0,5.76,-54.8902,23.8964)">
        <path d="M14.723,3.49L14.723,-2.76L17.223,-2.76L17.223,2.24L19.723,2.24L19.723,3.49L14.723,3.49Z" style="fill:rgb(29,41,61);fill-rule:nonzero;"/>
    </g>
    <g transform="matrix(4,0,0,5.76,-152.462,22.1049)">
        <path d="M44.115,3.107L44.115,1.857L42.865,1.857L42.865,-1.893L44.115,-1.893L44.115,-3.143L47.865,-3.143L47.865,-1.893L49.115,-1.893L49.115,-0.643L46.615,-0.643L46.615,-1.893L45.365,-1.893L45.365,1.857L46.615,1.857L46.615,0.607L49.115,0.607L49.115,1.857L47.865,1.857L47.865,3.107L44.115,3.107Z" style="fill:rgb(29,41,61);fill-rule:nonzero;"/>
    </g>
</svg>
