<?xml version="1.0" encoding="UTF-8" standalone="no"?>
<!DOCTYPE svg PUBLIC "-//W3C//DTD SVG 1.1//EN" "http://www.w3.org/Graphics/SVG/1.1/DTD/svg11.dtd">
<svg width="100%" height="100%" viewBox="0 0 32 32" version="1.1" xmlns="http://www.w3.org/2000/svg" xmlns:xlink="http://www.w3.org/1999/xlink" xml:space="preserve" xmlns:serif="http://www.serif.com/" style="fill-rule:evenodd;clip-rule:evenodd;stroke-linejoin:round;stroke-miterlimit:2;">
    <g transform="matrix(1,0,0,1,-35,-3.55271e-15)">
        <g id="Instagram" transform="matrix(1,0,0,1,35,3.55271e-15)">
            <rect x="0" y="0" width="32" height="32" style="fill:none;"/>
            <g transform="matrix(1.1875,0,0,1.1875,-26.75,-3.25)">
                <path d="M24,24L24,8L25,8L25,6.5L26.5,6.5L26.5,5L28,5L28,4L44,4L44,5L45.5,5L45.5,6.5L47,6.5L47,8L48,8L48,24L47,24L47,25.5L45.5,25.5L45.5,27L44,27L44,28L28,28L28,27L26.5,27L26.5,25.5L25,25.5L25,24L24,24ZM25.895,22.947L26.737,22.947L26.737,24.211L28,24.211L28,25.474L29.263,25.474L29.263,26.316L42.737,26.316L42.737,25.474L44,25.474L44,24.211L45.263,24.211L45.263,22.947L46.105,22.947L46.105,9.474L45.263,9.474L45.263,8.211L44,8.211L44,6.947L42.737,6.947L42.737,6.105L29.263,6.105L29.263,6.947L28,6.947L28,8.211L26.737,8.211L26.737,9.474L25.895,9.474L25.895,22.947Z"/>
            </g>
            <g transform="matrix(1,0,0,1,-20,0)">
                <rect x="42" y="7" width="2.5" height="2.5" style="fill:rgb(26,0,0);"/>
            </g>
            <g transform="matrix(1,0,0,1,-20,0)">
                <path d="M40,23L32,23L32,21.5L30.5,21.5L30.5,20L29,20L29,11.5L30.5,11.5L30.5,10L32,10L32,8.5L40,8.5L40,10L41.5,10L41.5,11.5L43,11.5L43,20L41.5,20L41.5,21.5L40,21.5L40,23ZM32.5,11L32.5,12.5L31,12.5L31,19L32.5,19L32.5,20.5L39.5,20.5L39.5,19L41,19L41,12.5L39.5,12.5L39.5,11L32.5,11Z"/>
            </g>
        </g>
    </g>
</svg>
