<?xml version="1.0" encoding="UTF-8" standalone="no"?>
<!DOCTYPE svg PUBLIC "-//W3C//DTD SVG 1.1//EN" "http://www.w3.org/Graphics/SVG/1.1/DTD/svg11.dtd">
<svg width="100%" height="100%" viewBox="0 0 98 8" version="1.1" xmlns="http://www.w3.org/2000/svg" xmlns:xlink="http://www.w3.org/1999/xlink" xml:space="preserve" xmlns:serif="http://www.serif.com/" style="fill-rule:evenodd;clip-rule:evenodd;stroke-linejoin:round;stroke-miterlimit:2;">
    <g id="Artboard1" transform="matrix(0.852174,0,0,0.380952,0,0)">
        <rect x="0" y="0" width="115" height="21" style="fill:none;"/>
        <clipPath id="_clip1">
            <rect x="0" y="0" width="115" height="21"/>
        </clipPath>
        <g clip-path="url(#_clip1)">
            <g transform="matrix(1,0,0,1.125,0,-2.625)">
                <g transform="matrix(1.17347,0,0,2.98667,-3.89277,6.19183)">
                    <path d="M31.067,4.958L31.067,-1.292L33.567,-1.292L33.567,-0.042L34.817,-0.042L34.817,1.208L36.067,1.208L36.067,-1.292L38.567,-1.292L38.567,4.958L36.067,4.958L36.067,3.708L34.817,3.708L34.817,2.458L33.567,2.458L33.567,4.958L31.067,4.958Z" style="fill-rule:nonzero;"/>
                </g>
                <g transform="matrix(1.17347,0,0,2.98667,-17.2764,10.5759)">
                    <path d="M14.723,3.49L14.723,-2.76L17.223,-2.76L17.223,2.24L19.723,2.24L19.723,3.49L14.723,3.49Z" style="fill-rule:nonzero;"/>
                </g>
                <g transform="matrix(1.17347,0,0,2.33333,-10.1006,6.05978)">
                    <path d="M14.357,6.403L14.357,0.153L19.357,0.153L19.357,1.403L16.857,1.403L16.857,2.653L19.357,2.653L19.357,3.903L16.857,3.903L16.857,5.153L19.357,5.153L19.357,6.403L14.357,6.403Z" style="fill-rule:nonzero;"/>
                </g>
                <g transform="matrix(1.17347,0,0,2.33333,-43.1616,7.27932)">
                    <path d="M48.531,5.88L48.531,-0.37L51.031,-0.37L51.031,0.88L53.531,0.88L53.531,-0.37L56.031,-0.37L56.031,5.88L53.531,5.88L53.531,3.38L51.031,3.38L51.031,5.88L48.531,5.88Z" style="fill-rule:nonzero;"/>
                </g>
                <g transform="matrix(1.17347,0,0,2.33333,-41.9817,-10.0182)">
                    <path d="M57.276,13.294L57.276,12.044L56.026,12.044L56.026,8.294L57.276,8.294L57.276,7.044L61.026,7.044L61.026,8.294L62.276,8.294L62.276,12.044L61.026,12.044L61.026,13.294L57.276,13.294ZM58.526,11.994L59.776,11.994L59.776,8.344L58.526,8.344L58.526,11.994Z" style="fill-rule:nonzero;"/>
                </g>
                <g transform="matrix(1.17347,0,0,2.98667,-0.135421,11.7211)">
                    <path d="M44.115,3.107L44.115,1.857L42.865,1.857L42.865,-1.893L44.115,-1.893L44.115,-3.143L47.865,-3.143L47.865,-1.893L49.115,-1.893L49.115,-0.643L46.615,-0.643L46.615,-1.893L45.365,-1.893L45.365,1.857L46.615,1.857L46.615,0.607L49.115,0.607L49.115,1.857L47.865,1.857L47.865,3.107L44.115,3.107Z" style="fill-rule:nonzero;"/>
                </g>
                <g transform="matrix(1.17347,0,0,2.33333,4.40094,-0.783911)">
                    <path d="M47.75,9.336L47.75,8.086L46.5,8.086L46.5,4.336L47.75,4.336L47.75,3.086L51.5,3.086L51.5,4.336L52.75,4.336L52.75,8.086L51.5,8.086L51.5,9.336L47.75,9.336ZM49,8.036L50.25,8.036L50.25,4.386L49,4.386L49,8.036Z" style="fill-rule:nonzero;"/>
                </g>
                <g transform="matrix(1.17347,0,0,2.33333,1.22906,-13.0002)">
                    <path d="M56.453,14.571L56.453,9.571L57.703,9.571L57.703,8.321L61.453,8.321L61.453,9.571L62.703,9.571L62.703,14.571L60.203,14.571L60.203,12.071L58.953,12.071L58.953,14.571L56.453,14.571ZM58.953,10.821L60.203,10.821L60.203,9.621L58.953,9.621L58.953,10.821Z" style="fill-rule:nonzero;"/>
                </g>
                <g transform="matrix(1.17347,0,0,2.33333,20.742,-10.922)">
                    <path d="M48.324,13.681L48.324,12.431L47.074,12.431L47.074,8.681L48.324,8.681L48.324,7.431L52.074,7.431L52.074,8.681L53.324,8.681L53.324,9.931L50.824,9.931L50.824,8.681L49.574,8.681L49.574,12.431L50.824,12.431L50.824,11.181L53.324,11.181L53.324,12.431L52.074,12.431L52.074,13.681L48.324,13.681Z" style="fill-rule:nonzero;"/>
                </g>
                <g transform="matrix(1.17347,0,0,2.33333,2.55058,-0.175496)">
                    <path d="M69.826,9.075L69.826,2.825L72.326,2.825L72.326,5.325L73.576,5.325L73.576,2.825L76.076,2.825L76.076,9.075L73.576,9.075L73.576,6.575L72.326,6.575L72.326,9.075L69.826,9.075Z" style="fill-rule:nonzero;"/>
                </g>
                <g transform="matrix(1.17347,0,0,2.33333,11.4,-9.49211)">
                    <rect x="69.535" y="6.818" width="2.5" height="6.25" style="fill-rule:nonzero;"/>
                </g>
                <g transform="matrix(1.17347,0,0,2.33333,18.8659,-13.1979)">
                    <path d="M66.673,14.656L66.673,8.406L69.173,8.406L69.173,9.656L70.423,9.656L70.423,10.906L71.673,10.906L71.673,8.406L74.173,8.406L74.173,14.656L71.673,14.656L71.673,13.406L70.423,13.406L70.423,12.156L69.173,12.156L69.173,14.656L66.673,14.656Z" style="fill-rule:nonzero;"/>
                </g>
                <g transform="matrix(1.17347,0,0,2.33333,39.6298,10.961)">
                    <path d="M58.729,4.302L58.729,3.052L57.479,3.052L57.479,-0.698L58.729,-0.698L58.729,-1.948L63.729,-1.948L63.729,-0.698L59.979,-0.698L59.979,3.052L61.229,3.052L61.229,0.552L63.729,0.552L63.729,3.052L62.479,3.052L62.479,4.302L58.729,4.302Z" style="fill-rule:nonzero;"/>
                </g>
            </g>
        </g>
    </g>
</svg>
