<?xml version="1.0" encoding="UTF-8" standalone="no"?>
<!DOCTYPE svg PUBLIC "-//W3C//DTD SVG 1.1//EN" "http://www.w3.org/Graphics/SVG/1.1/DTD/svg11.dtd">
<svg width="100%" height="100%" viewBox="0 0 1280 110" version="1.1" xmlns="http://www.w3.org/2000/svg" xmlns:xlink="http://www.w3.org/1999/xlink" xml:space="preserve" xmlns:serif="http://www.serif.com/" style="fill-rule:evenodd;clip-rule:evenodd;stroke-linejoin:round;stroke-miterlimit:2;">
    <g id="Artboard1" transform="matrix(0.969697,0,0,0.95894,0,0)">
        <rect x="0" y="0" width="1320" height="114.71" style="fill:none;"/>
        <g transform="matrix(1.03125,0,0,1.04282,0,0)">
            <g transform="matrix(1,0,0,1,680,-121.796)">
                <path d="M566.8,164.82C556.6,162.22 547.8,160.02 547.8,151.62C547.8,145.02 552.8,140.82 560.8,140.82C568.2,140.42 575,145.42 576.4,152.82L596.4,143.22C591,130.02 578,122.02 561.4,122.02C539.8,122.02 524.8,135.22 524.8,154.02C524.8,177.02 541.4,181.42 556.2,185.22C566.6,187.82 575.4,190.22 575.4,198.82C575.4,206.02 569.6,210.62 560.8,210.62C552,210.62 544.6,205.82 542.6,198.62L522.6,208.22C528.2,221.42 542.4,229.42 560,229.42C583.4,229.42 598.4,216.42 598.4,196.02C598.4,172.82 580.8,168.42 566.8,164.82Z" style="fill:rgb(199,155,59);fill-rule:nonzero;"/>
            </g>
            <g transform="matrix(1,0,0,1,40,1.581)">
                <path d="M600,29.019L600,39.619L583,39.619L583,49.619L597.8,49.619L595,59.819L583,59.819L583,75.619L571.4,75.619L571.4,29.019L600,29.019Z" style="fill:rgb(199,155,59);fill-rule:nonzero;"/>
            </g>
            <g transform="matrix(1,0,0,1,40,1.581)">
                <path d="M542.2,39.819C549.4,39.819 555.2,45.619 555.2,52.819C555.2,60.019 549.4,65.819 542.2,65.819C535,65.819 529.2,60.019 529.2,52.819C529.2,45.619 535,39.819 542.2,39.819ZM542.2,77.019C555.6,77.019 566.4,66.019 566.4,52.619C566.4,39.219 555.4,28.419 542,28.419C528.6,28.419 517.8,39.419 517.8,52.619C517.8,66.219 528.8,77.219 542.2,77.019Z" style="fill:rgb(199,155,59);fill-rule:nonzero;"/>
            </g>
            <g transform="matrix(1,0,0,1,680,-121.796)">
                <path d="M329,226.42L350.6,226.42L350.6,158.22L399.6,226.42L422.2,226.42L422.2,122.62L400.4,122.62L400.4,191.82L352,122.62L324,122.62L329,132.82L329,226.42Z" style="fill:rgb(199,155,59);fill-rule:nonzero;"/>
            </g>
            <g transform="matrix(1,0,0,1,680,-121.796)">
                <path d="M495.4,186.82C492.4,194.22 486.4,200.02 479.2,203.22C475.4,204.82 471.4,205.62 467.2,205.62L454.8,205.62L454.8,143.62L467.2,143.62C471.4,143.62 475.4,144.42 479.2,146.02C486.6,149.02 492.4,155.02 495.4,162.42C498.6,170.42 498.6,179.02 495.4,186.82ZM488.2,126.82C481.6,124.22 474.6,122.82 467.6,122.42L432.2,122.42L432.2,226.22L467.6,226.22C481.6,226.22 495,221.02 505.2,211.42C510,206.82 514,201.22 516.6,195.02C525.2,175.42 520.6,152.62 505.2,137.82C500.2,133.22 494.6,129.42 488.2,126.82Z" style="fill:rgb(199,155,59);fill-rule:nonzero;"/>
            </g>
            <g transform="matrix(1,0,0,1,680,-121.796)">
                <path d="M138.4,226.42L76.6,226.42L76.6,122.62L138.4,122.62L138.4,142.82L99.2,142.82L99.2,163.82L135,163.82L129.6,183.42L99.2,183.42L99.2,206.22L138.4,206.42L138.4,226.42Z" style="fill:rgb(199,155,59);fill-rule:nonzero;"/>
            </g>
            <g transform="matrix(1,0,0,1,680,-121.796)">
                <path d="M279.6,142.82L318.8,142.82L318.8,122.62L257.2,122.62L257.2,226.42L318.8,226.42L318.8,206.42L279.6,206.22L279.6,183.42L310,183.42L315.4,163.82L279.6,163.82L279.6,142.82Z" style="fill:rgb(199,155,59);fill-rule:nonzero;"/>
            </g>
            <path d="M358,82.019C356,76.219 355,70.219 355.2,64.219L355.6,0.219L378,0.219L377.8,63.219C377.8,70.219 379.4,75.819 382.6,79.819C390.2,87.819 403,88.019 410.8,80.219L411.2,79.819C414.6,75.819 416.2,70.219 416.2,63.219L416.4,0.019L439.2,0.019L438.8,64.619C438.8,70.619 438,76.619 436,82.419C434.2,87.419 431.2,92.019 427.6,96.019C423.8,99.819 419.4,102.819 414.4,104.619C403,108.619 390.6,108.619 379.2,104.419C374.2,102.419 369.8,99.619 366.2,95.619C362.6,91.819 359.8,87.219 358,82.019L358,82.019Z" style="fill:rgb(199,155,59);fill-rule:nonzero;"/>
            <path d="M245.6,74.019C242.8,67.419 241.4,60.219 241.4,53.219C241.4,46.019 243,39.019 245.8,32.419C248.6,26.019 252.6,20.219 257.6,15.419C262.6,10.419 268.6,6.619 275,4.019C281.6,1.219 288.8,-0.181 296.2,0.019C306,-0.181 315.8,2.419 324.4,7.219C332.4,11.819 339,18.619 343.2,27.019L322.8,36.619C320.4,31.819 316.6,27.819 312,25.019C307.2,22.219 301.6,21.019 296,21.019C291.8,21.019 287.4,21.819 283.6,23.419C279.8,25.019 276.4,27.419 273.6,30.419C270.6,33.419 268.4,37.019 266.8,40.819C263.4,49.019 263.4,58.019 266.6,66.219C269.6,74.019 275.8,80.419 283.4,83.819C287.4,85.619 291.6,86.619 296,86.419C302.4,86.619 308.8,84.619 314,81.019C318.8,77.619 322.2,72.419 323.6,66.619L286.6,66.619L295.8,47.819L347.4,47.819C347.6,51.819 347.4,60.419 347.2,62.219C346.6,67.019 345.4,71.819 343.6,76.419C338.6,88.819 328.8,98.419 316.4,103.419C296,111.619 272.8,106.819 257.2,91.219C252.2,86.219 248.4,80.419 245.6,74.019L245.6,74.019Z" style="fill:rgb(199,155,59);fill-rule:nonzero;"/>
            <path d="M5.2,93.619L5.2,11.019L0,0.219L27.6,0.219L27.6,84.019L69,84.019L63.2,104.419L0,104.419L5.2,93.619Z" style="fill:rgb(199,155,59);fill-rule:nonzero;"/>
            <g transform="matrix(1,0,0,1,680,-121.796)">
                <path d="M5.2,215.62L5.2,133.02L0,122.22L27.6,122.22L27.6,206.02L69,206.02L63.2,226.42L0,226.42L5.2,215.62Z" style="fill:rgb(199,155,59);fill-rule:nonzero;"/>
            </g>
            <path d="M138.4,104.42L76.6,104.42L76.6,0.62L138.4,0.62L138.4,20.82L99.2,20.82L99.2,41.82L135,41.82L129.6,61.42L99.2,61.42L99.2,84.02L138.4,84.22L138.4,104.42Z" style="fill:rgb(199,155,59);fill-rule:nonzero;"/>
            <path d="M510.8,104.42L449.2,104.42L449.2,0.62L511,0.62L511,20.82L471.8,20.82L471.8,41.82L507.6,41.82L502.2,61.42L471.8,61.42L471.8,84.02L511,84.22L511,104.42L510.8,104.42Z" style="fill:rgb(199,155,59);fill-rule:nonzero;"/>
            <path d="M197.6,29.419L210.6,64.419L184,64.419L197.6,29.419ZM168.6,104.419L176.4,84.219L218,84.219L226,104.419L249.4,104.419L207.6,0.219L175.6,0.219L182.4,13.819L145.6,104.419L168.6,104.419Z" style="fill:rgb(199,155,59);fill-rule:nonzero;"/>
            <g transform="matrix(1,0,0,1,680,-121.796)">
                <path d="M185.2,228.02C189,228.82 192.8,229.22 196.8,229.22C203.8,229.42 210.8,228.02 217.4,225.42C229.8,220.42 239.6,210.82 244.6,198.42C246.4,193.82 247.6,189.02 248.2,184.22C248.6,179.42 248.6,174.62 248.4,169.62L196.8,169.62L196.8,169.82L187.6,188.62L224.4,188.62C223,194.42 219.6,199.62 214.8,203.02C209.6,206.82 203.4,208.62 197,208.42C195,208.42 193.2,208.22 191.2,207.82L186.6,206.62C185.8,206.42 185.2,206.02 184.4,205.82C176.8,202.42 170.6,196.22 167.6,188.22C164.4,180.02 164.4,170.82 167.8,162.62C169.4,158.82 171.8,155.22 174.6,152.22C177.4,149.22 181,147.02 184.8,145.42C188.8,143.82 193,143.02 197.2,143.02C202.8,142.82 208.4,144.22 213.2,147.02C217.8,149.82 221.6,153.82 224,158.62L244.4,149.02C240.2,140.62 233.8,133.82 225.6,129.22C217,124.42 207.4,122.02 197.4,122.02C183,121.82 169.2,127.42 158.8,137.62C153.8,142.42 149.8,148.22 147,154.62C141.2,167.82 141.2,183.02 146.8,196.22C149.6,202.62 153.4,208.42 158.2,213.42C162.6,217.82 167.8,221.42 173.4,224.22C177.333,225.992 181.267,227.429 185.2,228.02L185.2,228.02Z" style="fill:rgb(199,155,59);fill-rule:nonzero;"/>
            </g>
        </g>
    </g>
</svg>
