<?xml version="1.0" encoding="UTF-8" standalone="no"?>
<!DOCTYPE svg PUBLIC "-//W3C//DTD SVG 1.1//EN" "http://www.w3.org/Graphics/SVG/1.1/DTD/svg11.dtd">
<svg width="100%" height="100%" viewBox="0 0 32 32" version="1.1" xmlns="http://www.w3.org/2000/svg" xmlns:xlink="http://www.w3.org/1999/xlink" xml:space="preserve" xmlns:serif="http://www.serif.com/" style="fill-rule:evenodd;clip-rule:evenodd;stroke-linejoin:round;stroke-miterlimit:2;">
    <g transform="matrix(1,0,0,1,0,-38)">
        <g id="Youtube-alt" serif:id="Youtube alt" transform="matrix(1,0,0,1,0,38)">
            <rect x="0" y="0" width="32" height="32" style="fill:none;"/>
            <g transform="matrix(1,0,0,1,0,-38)">
                <path d="M0,59.5L0,47.5L1.5,47.5L1.5,44.5L4.5,44.5L4.5,43L27.5,43L27.5,44.5L30.5,44.5L30.5,47.5L32,47.5L32,59.5L30.5,59.5L30.5,62.5L27.5,62.5L27.5,64L4.5,64L4.5,62.5L1.5,62.5L1.5,59.5L0,59.5ZM13,48.5L13,58.5L15,58.5L15,57L17,57L17,55.5L19,55.5L19,54.5L21,54.5L21,52.5L19,52.5L19,51.5L17,51.5L17,50L15,50L15,48.5L13,48.5Z"/>
            </g>
        </g>
    </g>
</svg>
